{
    "asset" : {
        "generator" : "Khronos glTF Blender I/O v1.8.19",
        "version" : "2.0"
    },
    "extensionsUsed" : [
        "KHR_materials_transmission"
    ],
    "scene" : 0,
    "scenes" : [
        {
            "name" : "Scene",
            "nodes" : [
                0
            ]
        }
    ],
    "nodes" : [
        {
            "mesh" : 0,
            "name" : "gaschamber",
            "scale" : [
                0.10000000149011612,
                0.10000000149011612,
                0.10000000149011612
            ],
            "translation" : [
                0,
                0.4000000059604645,
                0
            ]
        }
    ],
    "materials" : [
        {
            "doubleSided" : true,
            "name" : "gaschamber #236",
            "normalTexture" : {
                "index" : 0,
                "scale" : 0.1000000536441803
            },
            "pbrMetallicRoughness" : {
                "baseColorFactor" : [
                    0.573158860206604,
                    0.9573695659637451,
                    0.9239933490753174,
                    1
                ],
                "metallicFactor" : 0.23000000417232513,
                "roughnessFactor" : 0.10000000149011612
            }
        },
        {
            "doubleSided" : true,
            "name" : "chairleg",
            "pbrMetallicRoughness" : {
                "baseColorFactor" : [
                    0.058187175542116165,
                    0.16364066302776337,
                    0.23882797360420227,
                    1
                ],
                "metallicFactor" : 0,
                "roughnessFactor" : 0.10000000149011612
            }
        },
        {
            "alphaMode" : "BLEND",
            "doubleSided" : true,
            "extensions" : {
                "KHR_materials_transmission" : {
                    "transmissionFactor" : 0.6800000071525574
                }
            },
            "name" : "glass",
            "normalTexture" : {
                "index" : 1,
                "scale" : 0.49999991059303284
            },
            "pbrMetallicRoughness" : {
                "baseColorFactor" : [
                    0.08464150875806808,
                    0.4045408070087433,
                    0.8912620544433594,
                    0.30000001192092896
                ],
                "metallicFactor" : 0,
                "roughnessFactor" : 0.10000000149011612
            }
        },
        {
            "doubleSided" : true,
            "emissiveFactor" : [
                0.050654876977205276,
                0.010343301109969616,
                0.010343301109969616
            ],
            "name" : "chair",
            "pbrMetallicRoughness" : {
                "baseColorFactor" : [
                    0.012663719244301319,
                    0.002585825277492404,
                    0.002585825277492404,
                    1
                ],
                "metallicFactor" : 0,
                "roughnessFactor" : 0.800000011920929
            }
        }
    ],
    "meshes" : [
        {
            "name" : "gaschamber",
            "primitives" : [
                {
                    "attributes" : {
                        "POSITION" : 0,
                        "NORMAL" : 1,
                        "TEXCOORD_0" : 2
                    },
                    "indices" : 3,
                    "material" : 0
                },
                {
                    "attributes" : {
                        "POSITION" : 4,
                        "NORMAL" : 5,
                        "TEXCOORD_0" : 6
                    },
                    "indices" : 7,
                    "material" : 1
                },
                {
                    "attributes" : {
                        "POSITION" : 8,
                        "NORMAL" : 9,
                        "TEXCOORD_0" : 10
                    },
                    "indices" : 11,
                    "material" : 2
                },
                {
                    "attributes" : {
                        "POSITION" : 12,
                        "NORMAL" : 13,
                        "TEXCOORD_0" : 14
                    },
                    "indices" : 15,
                    "material" : 3
                }
            ]
        }
    ],
    "textures" : [
        {
            "sampler" : 0,
            "source" : 0
        },
        {
            "sampler" : 0,
            "source" : 1
        }
    ],
    "images" : [
        {
            "mimeType" : "image/png",
            "name" : "chamber_normal_metal",
            "uri" : "chamber_normal_metal.png"
        },
        {
            "mimeType" : "image/png",
            "name" : "chamber_normal_glass",
            "uri" : "chamber_normal_glass.png"
        }
    ],
    "accessors" : [
        {
            "bufferView" : 0,
            "componentType" : 5126,
            "count" : 656,
            "max" : [
                4,
                4,
                3
            ],
            "min" : [
                -3,
                -4,
                -4
            ],
            "type" : "VEC3"
        },
        {
            "bufferView" : 1,
            "componentType" : 5126,
            "count" : 656,
            "type" : "VEC3"
        },
        {
            "bufferView" : 2,
            "componentType" : 5126,
            "count" : 656,
            "type" : "VEC2"
        },
        {
            "bufferView" : 3,
            "componentType" : 5123,
            "count" : 2262,
            "type" : "SCALAR"
        },
        {
            "bufferView" : 4,
            "componentType" : 5126,
            "count" : 64,
            "max" : [
                2,
                -2,
                1
            ],
            "min" : [
                -1,
                -3,
                -2
            ],
            "type" : "VEC3"
        },
        {
            "bufferView" : 5,
            "componentType" : 5126,
            "count" : 64,
            "type" : "VEC3"
        },
        {
            "bufferView" : 6,
            "componentType" : 5126,
            "count" : 64,
            "type" : "VEC2"
        },
        {
            "bufferView" : 7,
            "componentType" : 5123,
            "count" : 96,
            "type" : "SCALAR"
        },
        {
            "bufferView" : 8,
            "componentType" : 5126,
            "count" : 120,
            "max" : [
                2,
                2,
                3
            ],
            "min" : [
                -3,
                -2,
                -2
            ],
            "type" : "VEC3"
        },
        {
            "bufferView" : 9,
            "componentType" : 5126,
            "count" : 120,
            "type" : "VEC3"
        },
        {
            "bufferView" : 10,
            "componentType" : 5126,
            "count" : 120,
            "type" : "VEC2"
        },
        {
            "bufferView" : 11,
            "componentType" : 5123,
            "count" : 384,
            "type" : "SCALAR"
        },
        {
            "bufferView" : 12,
            "componentType" : 5126,
            "count" : 92,
            "max" : [
                2,
                2,
                1
            ],
            "min" : [
                -1,
                -2,
                -3
            ],
            "type" : "VEC3"
        },
        {
            "bufferView" : 13,
            "componentType" : 5126,
            "count" : 92,
            "type" : "VEC3"
        },
        {
            "bufferView" : 14,
            "componentType" : 5126,
            "count" : 92,
            "type" : "VEC2"
        },
        {
            "bufferView" : 15,
            "componentType" : 5123,
            "count" : 246,
            "type" : "SCALAR"
        }
    ],
    "bufferViews" : [
        {
            "buffer" : 0,
            "byteLength" : 7872,
            "byteOffset" : 0
        },
        {
            "buffer" : 0,
            "byteLength" : 7872,
            "byteOffset" : 7872
        },
        {
            "buffer" : 0,
            "byteLength" : 5248,
            "byteOffset" : 15744
        },
        {
            "buffer" : 0,
            "byteLength" : 4524,
            "byteOffset" : 20992
        },
        {
            "buffer" : 0,
            "byteLength" : 768,
            "byteOffset" : 25516
        },
        {
            "buffer" : 0,
            "byteLength" : 768,
            "byteOffset" : 26284
        },
        {
            "buffer" : 0,
            "byteLength" : 512,
            "byteOffset" : 27052
        },
        {
            "buffer" : 0,
            "byteLength" : 192,
            "byteOffset" : 27564
        },
        {
            "buffer" : 0,
            "byteLength" : 1440,
            "byteOffset" : 27756
        },
        {
            "buffer" : 0,
            "byteLength" : 1440,
            "byteOffset" : 29196
        },
        {
            "buffer" : 0,
            "byteLength" : 960,
            "byteOffset" : 30636
        },
        {
            "buffer" : 0,
            "byteLength" : 768,
            "byteOffset" : 31596
        },
        {
            "buffer" : 0,
            "byteLength" : 1104,
            "byteOffset" : 32364
        },
        {
            "buffer" : 0,
            "byteLength" : 1104,
            "byteOffset" : 33468
        },
        {
            "buffer" : 0,
            "byteLength" : 736,
            "byteOffset" : 34572
        },
        {
            "buffer" : 0,
            "byteLength" : 492,
            "byteOffset" : 35308
        }
    ],
    "samplers" : [
        {
            "magFilter" : 9728,
            "minFilter" : 9984
        }
    ],
    "buffers" : [
        {
            "byteLength" : 35800,
            "uri" : "untitled2.bin"
        }
    ]
}
