{
    "asset" : {
        "generator" : "Khronos glTF Blender I/O v1.8.19",
        "version" : "2.0"
    },
    "extensionsUsed" : [
        "KHR_lights_punctual"
    ],
    "extensionsRequired" : [
        "KHR_lights_punctual"
    ],
    "extensions" : {
        "KHR_lights_punctual" : {
            "lights" : [
                {
                    "color" : [
                        0.47932031750679016,
                        0.3813260495662689,
                        0.19120171666145325
                    ],
                    "intensity" : 5,
                    "spot" : {
                        "innerConeAngle" : 0,
                        "outerConeAngle" : 1.289798378944397
                    },
                    "type" : "spot",
                    "name" : "Light"
                }
            ]
        }
    },
    "scene" : 0,
    "scenes" : [
        {
            "name" : "Scene",
            "nodes" : [
                1,
                2
            ]
        }
    ],
    "nodes" : [
        {
            "extensions" : {
                "KHR_lights_punctual" : {
                    "light" : 0
                }
            },
            "name" : "Light_Orientation",
            "rotation" : [
                -0.7071067690849304,
                0,
                0,
                0.7071067690849304
            ]
        },
        {
            "children" : [
                0
            ],
            "name" : "Light",
            "translation" : [
                -0.05118778720498085,
                0.6919705867767334,
                0.06077197194099426
            ]
        },
        {
            "mesh" : 0,
            "name" : "hotel.vox.002"
        }
    ],
    "materials" : [
        {
            "doubleSided" : true,
            "emissiveFactor" : [
                1,
                1,
                1
            ],
            "emissiveTexture" : {
                "index" : 0
            },
            "name" : "Material.001",
            "normalTexture" : {
                "index" : 1,
                "scale" : 0.20000004768371582
            },
            "pbrMetallicRoughness" : {
                "baseColorTexture" : {
                    "index" : 2
                },
                "metallicFactor" : 0,
                "roughnessFactor" : 0.5
            }
        },
        {
            "alphaMode" : "BLEND",
            "doubleSided" : true,
            "name" : "Material",
            "pbrMetallicRoughness" : {
                "baseColorFactor" : [
                    1,
                    1,
                    1,
                    0.5
                ],
                "baseColorTexture" : {
                    "index" : 3
                },
                "metallicFactor" : 0,
                "roughnessFactor" : 0.5
            }
        }
    ],
    "meshes" : [
        {
            "name" : "hotel.vox.002",
            "primitives" : [
                {
                    "attributes" : {
                        "POSITION" : 0,
                        "NORMAL" : 1,
                        "TEXCOORD_0" : 2,
                        "COLOR_0" : 3
                    },
                    "indices" : 4,
                    "material" : 0
                },
                {
                    "attributes" : {
                        "POSITION" : 5,
                        "NORMAL" : 6,
                        "TEXCOORD_0" : 7,
                        "COLOR_0" : 8
                    },
                    "indices" : 9,
                    "material" : 1
                }
            ]
        }
    ],
    "textures" : [
        {
            "sampler" : 0,
            "source" : 0
        },
        {
            "sampler" : 0,
            "source" : 1
        },
        {
            "sampler" : 0,
            "source" : 2
        },
        {
            "sampler" : 0,
            "source" : 3
        }
    ],
    "images" : [
        {
            "mimeType" : "image/png",
            "name" : "hotel emit",
            "uri" : "texture/hotel%20emit.png"
        },
        {
            "mimeType" : "image/png",
            "name" : "hotel normal",
            "uri" : "texture/hotel%20normal.png"
        },
        {
            "mimeType" : "image/png",
            "name" : "hotel diffuse2-hotel alpha",
            "uri" : "texture/hotel%20diffuse2-hotel%20alpha.png"
        },
        {
            "mimeType" : "image/png",
            "name" : "hotel window",
            "uri" : "texture/hotel%20window.png"
        }
    ],
    "accessors" : [
        {
            "bufferView" : 0,
            "componentType" : 5126,
            "count" : 800,
            "max" : [
                0.30000001192092896,
                0.800000011920929,
                0.4000000059604645
            ],
            "min" : [
                -0.30000001192092896,
                0,
                -0.4000000059604645
            ],
            "type" : "VEC3"
        },
        {
            "bufferView" : 1,
            "componentType" : 5126,
            "count" : 800,
            "type" : "VEC3"
        },
        {
            "bufferView" : 2,
            "componentType" : 5126,
            "count" : 800,
            "type" : "VEC2"
        },
        {
            "bufferView" : 3,
            "componentType" : 5123,
            "count" : 800,
            "normalized" : true,
            "type" : "VEC4"
        },
        {
            "bufferView" : 4,
            "componentType" : 5123,
            "count" : 2562,
            "type" : "SCALAR"
        },
        {
            "bufferView" : 5,
            "componentType" : 5126,
            "count" : 20,
            "max" : [
                0.30000001192092896,
                0.4000000059604645,
                0.4000000059604645
            ],
            "min" : [
                -0.30000001192092896,
                0.30000001192092896,
                -0.20000000298023224
            ],
            "type" : "VEC3"
        },
        {
            "bufferView" : 6,
            "componentType" : 5126,
            "count" : 20,
            "type" : "VEC3"
        },
        {
            "bufferView" : 7,
            "componentType" : 5126,
            "count" : 20,
            "type" : "VEC2"
        },
        {
            "bufferView" : 8,
            "componentType" : 5123,
            "count" : 20,
            "normalized" : true,
            "type" : "VEC4"
        },
        {
            "bufferView" : 9,
            "componentType" : 5123,
            "count" : 30,
            "type" : "SCALAR"
        }
    ],
    "bufferViews" : [
        {
            "buffer" : 0,
            "byteLength" : 9600,
            "byteOffset" : 0
        },
        {
            "buffer" : 0,
            "byteLength" : 9600,
            "byteOffset" : 9600
        },
        {
            "buffer" : 0,
            "byteLength" : 6400,
            "byteOffset" : 19200
        },
        {
            "buffer" : 0,
            "byteLength" : 6400,
            "byteOffset" : 25600
        },
        {
            "buffer" : 0,
            "byteLength" : 5124,
            "byteOffset" : 32000
        },
        {
            "buffer" : 0,
            "byteLength" : 240,
            "byteOffset" : 37124
        },
        {
            "buffer" : 0,
            "byteLength" : 240,
            "byteOffset" : 37364
        },
        {
            "buffer" : 0,
            "byteLength" : 160,
            "byteOffset" : 37604
        },
        {
            "buffer" : 0,
            "byteLength" : 160,
            "byteOffset" : 37764
        },
        {
            "buffer" : 0,
            "byteLength" : 60,
            "byteOffset" : 37924
        }
    ],
    "samplers" : [
        {
            "magFilter" : 9728,
            "minFilter" : 9984
        }
    ],
    "buffers" : [
        {
            "byteLength" : 37984,
            "uri" : "scene.bin"
        }
    ]
}
