{
    "asset" : {
        "generator" : "Khronos glTF Blender I/O v1.8.19",
        "version" : "2.0"
    },
    "scene" : 0,
    "scenes" : [
        {
            "name" : "Scene",
            "nodes" : [
                0,
                1,
                2,
                3
            ]
        }
    ],
    "nodes" : [
        {
            "name" : "Light.001",
            "translation" : [
                -0.04999999701976776,
                0.6925302147865295,
                -0.04999999701976776
            ]
        },
        {
            "mesh" : 0,
            "name" : "road1.vox"
        },
        {
            "name" : "Light.002",
            "translation" : [
                -0.04999999701976776,
                0.6925302147865295,
                -0.04999999701976776
            ]
        },
        {
            "mesh" : 1,
            "name" : "road1.vox.001"
        }
    ],
    "materials" : [
        {
            "doubleSided" : true,
            "emissiveFactor" : [
                1,
                1,
                1
            ],
            "emissiveTexture" : {
                "index" : 0
            },
            "name" : "Material.003",
            "normalTexture" : {
                "index" : 1
            },
            "pbrMetallicRoughness" : {
                "baseColorTexture" : {
                    "index" : 2
                },
                "metallicFactor" : 0,
                "roughnessFactor" : 0.699999988079071
            }
        },
        {
            "doubleSided" : true,
            "emissiveFactor" : [
                1,
                1,
                1
            ],
            "emissiveTexture" : {
                "index" : 3
            },
            "name" : "Material.004",
            "normalTexture" : {
                "index" : 4
            },
            "pbrMetallicRoughness" : {
                "baseColorTexture" : {
                    "index" : 5
                },
                "metallicFactor" : 0,
                "roughnessFactor" : 0.699999988079071
            }
        },
        {
            "doubleSided" : true,
            "name" : "Material.005",
            "pbrMetallicRoughness" : {
                "baseColorTexture" : {
                    "index" : 6
                },
                "metallicFactor" : 0.30000001192092896,
                "roughnessFactor" : 0.5
            }
        }
    ],
    "meshes" : [
        {
            "name" : "road1.vox",
            "primitives" : [
                {
                    "attributes" : {
                        "POSITION" : 0,
                        "NORMAL" : 1,
                        "TEXCOORD_0" : 2,
                        "COLOR_0" : 3
                    },
                    "indices" : 4,
                    "material" : 0
                }
            ]
        },
        {
            "name" : "road1.vox.001",
            "primitives" : [
                {
                    "attributes" : {
                        "POSITION" : 5,
                        "NORMAL" : 6,
                        "TEXCOORD_0" : 7,
                        "COLOR_0" : 8
                    },
                    "indices" : 9,
                    "material" : 1
                },
                {
                    "attributes" : {
                        "POSITION" : 10,
                        "NORMAL" : 11,
                        "TEXCOORD_0" : 12,
                        "COLOR_0" : 13
                    },
                    "indices" : 14,
                    "material" : 2
                }
            ]
        }
    ],
    "textures" : [
        {
            "sampler" : 0,
            "source" : 0
        },
        {
            "sampler" : 1,
            "source" : 1
        },
        {
            "sampler" : 0,
            "source" : 2
        },
        {
            "sampler" : 0,
            "source" : 0
        },
        {
            "sampler" : 1,
            "source" : 1
        },
        {
            "sampler" : 0,
            "source" : 2
        },
        {
            "sampler" : 0,
            "source" : 2
        }
    ],
    "images" : [
        {
            "mimeType" : "image/png",
            "name" : "Image_0",
            "uri" : "Image_0.png"
        },
        {
            "mimeType" : "image/png",
            "name" : "Image_1",
            "uri" : "Image_1.png"
        },
        {
            "mimeType" : "image/png",
            "name" : "Image_2",
            "uri" : "Image_2.png"
        }
    ],
    "accessors" : [
        {
            "bufferView" : 0,
            "componentType" : 5126,
            "count" : 613,
            "max" : [
                0.4000000059604645,
                0.800000011920929,
                0.4000000059604645
            ],
            "min" : [
                -0.4000000059604645,
                0,
                -0.4000000059604645
            ],
            "type" : "VEC3"
        },
        {
            "bufferView" : 1,
            "componentType" : 5126,
            "count" : 613,
            "type" : "VEC3"
        },
        {
            "bufferView" : 2,
            "componentType" : 5126,
            "count" : 613,
            "type" : "VEC2"
        },
        {
            "bufferView" : 3,
            "componentType" : 5123,
            "count" : 613,
            "normalized" : true,
            "type" : "VEC4"
        },
        {
            "bufferView" : 4,
            "componentType" : 5123,
            "count" : 1476,
            "type" : "SCALAR"
        },
        {
            "bufferView" : 5,
            "componentType" : 5126,
            "count" : 517,
            "max" : [
                0.4000000059604645,
                0.800000011920929,
                0.4000000059604645
            ],
            "min" : [
                -0.4000000059604645,
                0,
                -0.4000000059604645
            ],
            "type" : "VEC3"
        },
        {
            "bufferView" : 6,
            "componentType" : 5126,
            "count" : 517,
            "type" : "VEC3"
        },
        {
            "bufferView" : 7,
            "componentType" : 5126,
            "count" : 517,
            "type" : "VEC2"
        },
        {
            "bufferView" : 8,
            "componentType" : 5123,
            "count" : 517,
            "normalized" : true,
            "type" : "VEC4"
        },
        {
            "bufferView" : 9,
            "componentType" : 5123,
            "count" : 1266,
            "type" : "SCALAR"
        },
        {
            "bufferView" : 10,
            "componentType" : 5126,
            "count" : 96,
            "max" : [
                0.4000000059604645,
                0.800000011920929,
                0.4000000059604645
            ],
            "min" : [
                0,
                0.10000000149011612,
                0
            ],
            "type" : "VEC3"
        },
        {
            "bufferView" : 11,
            "componentType" : 5126,
            "count" : 96,
            "type" : "VEC3"
        },
        {
            "bufferView" : 12,
            "componentType" : 5126,
            "count" : 96,
            "type" : "VEC2"
        },
        {
            "bufferView" : 13,
            "componentType" : 5123,
            "count" : 96,
            "normalized" : true,
            "type" : "VEC4"
        },
        {
            "bufferView" : 14,
            "componentType" : 5123,
            "count" : 210,
            "type" : "SCALAR"
        }
    ],
    "bufferViews" : [
        {
            "buffer" : 0,
            "byteLength" : 7356,
            "byteOffset" : 0
        },
        {
            "buffer" : 0,
            "byteLength" : 7356,
            "byteOffset" : 7356
        },
        {
            "buffer" : 0,
            "byteLength" : 4904,
            "byteOffset" : 14712
        },
        {
            "buffer" : 0,
            "byteLength" : 4904,
            "byteOffset" : 19616
        },
        {
            "buffer" : 0,
            "byteLength" : 2952,
            "byteOffset" : 24520
        },
        {
            "buffer" : 0,
            "byteLength" : 6204,
            "byteOffset" : 27472
        },
        {
            "buffer" : 0,
            "byteLength" : 6204,
            "byteOffset" : 33676
        },
        {
            "buffer" : 0,
            "byteLength" : 4136,
            "byteOffset" : 39880
        },
        {
            "buffer" : 0,
            "byteLength" : 4136,
            "byteOffset" : 44016
        },
        {
            "buffer" : 0,
            "byteLength" : 2532,
            "byteOffset" : 48152
        },
        {
            "buffer" : 0,
            "byteLength" : 1152,
            "byteOffset" : 50684
        },
        {
            "buffer" : 0,
            "byteLength" : 1152,
            "byteOffset" : 51836
        },
        {
            "buffer" : 0,
            "byteLength" : 768,
            "byteOffset" : 52988
        },
        {
            "buffer" : 0,
            "byteLength" : 768,
            "byteOffset" : 53756
        },
        {
            "buffer" : 0,
            "byteLength" : 420,
            "byteOffset" : 54524
        }
    ],
    "samplers" : [
        {
            "magFilter" : 9729,
            "minFilter" : 9987
        },
        {
            "magFilter" : 9728,
            "minFilter" : 9984
        }
    ],
    "buffers" : [
        {
            "byteLength" : 54944,
            "uri" : "untitled.bin"
        }
    ]
}
